<svg version="1.1" xmlns="http://www.w3.org/2000/svg" xmlns:xlink="http://www.w3.org/1999/xlink" width="500" height="500"><g data-paper-data="{&quot;description&quot;:&quot;Logo for Cheng Tools\n====================\n\nThis logo was generated by MarkMaker at http://emblemmatic.org/markmaker/ and may be composed of elements designed by others.\n\nThe font is Monsieur La Doulaise Regular designed by Sudtipos and released under the OFL license via Google Fonts: https://www.google.com/fonts/specimen/Monsieur%20La%20Doulaise. The font includes this copyright statement: Copyright (c) 2006 Alejandro Paul (sudtipos@sudtipos.com), with Reserved Font Name \\\&quot;MonsieurLaDoulaise\\\n\nMarkMaker uses semantic data from the Princeton University WordNet database http://wordnet.princeton.edu and font descriptions from Google Fonts https://www.google.com/fonts.&quot;}" fill="#4a7449" fill-rule="nonzero" stroke="none" stroke-width="1" stroke-linecap="butt" stroke-linejoin="miter" stroke-miterlimit="10" stroke-dasharray="" stroke-dashoffset="0" font-family="none" font-weight="none" font-size="none" text-anchor="none" style="mix-blend-mode: normal"><g data-paper-data="{&quot;elementType&quot;:&quot;logo&quot;}"><g data-paper-data="{&quot;elementType&quot;:&quot;text&quot;}"><g data-paper-data="{&quot;baseline&quot;:97.5,&quot;elementType&quot;:&quot;row&quot;}"><g data-paper-data="{&quot;baselineProportion&quot;:0.7116788321167883,&quot;fontSize&quot;:100,&quot;baseline&quot;:97.5,&quot;elementType&quot;:&quot;word&quot;}"><path d="M86.24133,192.40067l0.25226,1.2613c-6.27847,1.0651 -11.57592,3.81193 -15.89237,8.24049c-4.31645,4.42856 -6.47467,8.96924 -6.47467,13.62203c0,2.97106 1.05108,5.5357 3.15325,7.69392c2.10217,2.15822 5.31147,3.57368 9.62792,4.24637c1.4575,-6.33452 4.97512,-11.91227 10.55287,-16.73324c5.57775,-4.82097 12.06643,-7.23145 19.46605,-7.23145c3.47558,0 6.09628,0.57459 7.8621,1.72378c1.76582,1.14918 2.64873,2.67676 2.64873,4.58272c0,4.20433 -3.43354,8.42268 -10.30061,12.65503c-6.86707,4.23236 -15.26172,6.34854 -25.18394,6.34854c-1.68173,0 -2.915,-0.02803 -3.69981,-0.08409c-0.16817,1.17721 -0.25226,2.3264 -0.25226,3.44755c0,3.69981 1.07911,6.90912 3.23733,9.62792c2.15822,2.7188 5.45162,4.55469 9.88018,5.50767c2.07414,-4.3725 4.87702,-8.63289 8.40866,-12.78116c3.53164,-4.14827 7.53977,-7.91816 12.02439,-11.30965c4.48462,-3.39149 9.5158,-6.12431 15.09355,-8.19844c5.57775,-2.07414 11.26761,-3.1112 17.06958,-3.1112c5.80198,0 8.70296,1.87793 8.70296,5.6338c0,2.63471 -1.5556,5.75993 -4.66681,9.37566c-3.1112,3.61572 -7.11933,7.10532 -12.02439,10.46878c-4.90505,3.36346 -10.80513,6.20839 -17.70023,8.53479c-6.8951,2.3264 -13.70612,3.48959 -20.43305,3.48959c-1.12115,0 -1.96202,-0.02803 -2.5226,-0.08409c-0.67269,1.4575 -1.2613,2.88697 -1.76582,4.28842c5.32549,0.72875 9.83813,2.13019 13.53794,4.20433c7.23145,-3.75587 13.31371,-5.6338 18.24679,-5.6338c2.74683,0 4.83498,0.63065 6.26445,1.89195c1.42947,1.2613 2.14421,2.92902 2.14421,5.00315c0,3.13923 -1.49954,6.37657 -4.49863,9.712c-2.99909,3.33544 -7.02123,5.7319 -12.06643,7.18941c-1.28933,4.20433 -4.48462,7.89013 -9.58587,11.05739c-5.10125,3.16726 -11.12746,4.75089 -18.07862,4.75089c-2.85894,0 -5.88606,-0.33635 -9.08135,-1.00904l0.84087,-0.75678c2.13019,0.3924 4.3725,0.58861 6.72693,0.58861c6.11029,0 11.51987,-1.33137 16.22872,-3.99411c4.70885,-2.66274 7.87611,-5.95613 9.50179,-9.88018c-2.35443,0.3924 -4.45659,0.58861 -6.3065,0.58861c-8.46472,0 -14.23867,-2.3264 -17.32184,-6.97919c-9.4177,5.38154 -18.05059,8.07231 -25.89868,8.07231c-4.26039,0 -7.65188,-0.91094 -10.17448,-2.73281c-2.5226,-1.82188 -3.7839,-4.05017 -3.7839,-6.68489c0,-4.14827 2.98507,-7.84808 8.95522,-11.09943c5.97015,-3.25135 14.61706,-4.87702 25.94072,-4.87702c0.89692,0 2.18625,0.05606 3.86798,0.16817c0.61664,-1.79385 1.17721,-3.27938 1.68173,-4.45659c-4.76491,-1.00904 -8.31056,-2.97106 -10.63696,-5.88606c-2.3264,-2.915 -3.48959,-6.36255 -3.48959,-10.34265c0,-1.4575 0.11212,-2.77486 0.33635,-3.95207c-5.15731,-0.61664 -9.01128,-2.08815 -11.56191,-4.41455c-2.55063,-2.3264 -3.82594,-5.11527 -3.82594,-8.36662c0,-4.82097 2.36844,-9.57186 7.10532,-14.25268c4.73688,-4.68082 10.69301,-7.72195 17.8684,-9.1234zM98.51797,248.06601c6.16635,0 12.50088,-1.12115 19.00357,-3.36346c6.5027,-2.24231 12.09446,-4.9471 16.77528,-8.11436c4.68082,-3.16726 8.52078,-6.46065 11.51987,-9.88018c2.99909,-3.41952 4.49863,-6.33452 4.49863,-8.74501c0,-3.19529 -2.7188,-4.79294 -8.1564,-4.79294c-5.4376,0 -11.30965,1.7518 -17.61614,5.25541c-6.3065,3.50361 -11.9403,7.87611 -16.90141,13.11751c-4.96111,5.2414 -8.9272,10.72104 -11.89826,16.43893c0.61664,0.05606 1.54159,0.08409 2.77486,0.08409M84.22325,254.12024c-10.14645,0 -17.96651,1.56962 -23.46016,4.70885c-5.49366,3.13923 -8.24049,6.64284 -8.24049,10.51083c0,2.29837 1.05108,4.20433 3.15325,5.71789c2.10217,1.51356 5.03118,2.27034 8.78705,2.27034c5.99818,0 14.07049,-2.99909 24.21694,-8.99727c-0.84087,-1.84991 -1.2613,-4.02214 -1.2613,-6.51671c0,-2.49457 0.33635,-5.00315 1.00904,-7.52575c-1.79385,-0.11212 -3.19529,-0.16817 -4.20433,-0.16817M82.6256,227.88522c5.77395,0 11.30965,-1.00904 16.60711,-3.02712c5.29746,-2.01808 9.4177,-4.38652 12.36073,-7.10532c2.94303,-2.7188 4.41455,-5.22738 4.41455,-7.52575c0,-3.36346 -3.32142,-5.0452 -9.96426,-5.0452c-6.64284,0 -12.57095,2.27034 -17.78432,6.81102c-5.21337,4.54068 -8.46472,9.78208 -9.75405,15.7242c1.68173,0.11212 3.05515,0.16817 4.12024,0.16817M131.31175,259.50179c0,-1.84991 -0.64466,-3.33544 -1.93399,-4.45659c-1.28933,-1.12115 -3.19529,-1.68173 -5.71789,-1.68173c-4.14827,0 -9.2215,1.76582 -15.21968,5.29746c5.99818,3.81193 8.99727,8.49275 8.99727,14.04246c0,0.72875 -0.08409,1.40144 -0.25226,2.01808c4.26039,-1.40144 7.67991,-3.5877 10.25857,-6.55876c2.57866,-2.97106 3.86798,-5.85803 3.86798,-8.66092M106.92663,259.58587l-14.29472,9.16544c2.29837,4.93308 7.53977,7.39962 15.7242,7.39962c1.62567,0 3.47558,-0.1962 5.54972,-0.58861c0.3924,-1.34539 0.58861,-2.55063 0.58861,-3.61572c0,-4.93308 -2.5226,-9.05332 -7.56779,-12.36073M92.88417,254.70885c-0.95298,2.97106 -1.42947,5.36753 -1.42947,7.18941c0,1.82188 0.14014,3.34945 0.42043,4.58272c6.39058,-3.86798 10.8752,-6.5027 13.45386,-7.90414c-3.53164,-1.96202 -7.67991,-3.25135 -12.44482,-3.86798" data-paper-data="{&quot;elementType&quot;:&quot;letter&quot;,&quot;baseline&quot;:97.5,&quot;baselineProportion&quot;:0.8248730964467005,&quot;fontSize&quot;:100}"></path><path d="M147.70864,273.8806c0,0.72875 0.37839,1.09313 1.13517,1.09313c0.75678,0 1.89195,-0.33635 3.40551,-1.00904c1.51356,-0.67269 2.85894,-1.3594 4.03616,-2.06012c1.17721,-0.70072 2.59267,-1.56962 4.24637,-2.60668c1.6537,-1.03707 2.53661,-1.58363 2.64873,-1.63969l0.16817,1.2613c-7.56779,5.0452 -12.86525,7.56779 -15.89237,7.56779c-1.4575,0 -2.18625,-0.72875 -2.18625,-2.18625c0,-1.4575 0.91094,-3.06916 2.73281,-4.83498c1.82188,-1.76582 3.64375,-3.34945 5.46563,-4.75089c1.82188,-1.40144 2.73281,-2.41048 2.73281,-3.02712c0,-0.22423 -0.1962,-0.33635 -0.58861,-0.33635c-1.28933,0 -4.79294,1.61166 -10.51083,4.83498c-5.71789,3.22332 -9.44573,5.59176 -11.18352,7.10532l-3.02712,2.5226c-0.22423,0.22423 -0.78481,0.33635 -1.68173,0.33635c-0.89692,0 -1.34539,-0.16817 -1.34539,-0.50452c0,-0.16817 0.11212,-0.3924 0.33635,-0.67269c5.88606,-6.61481 12.47285,-13.53794 19.76035,-20.76939c7.28751,-7.23145 14.42085,-13.6921 21.40004,-19.38196c6.97919,-5.68986 11.73008,-8.53479 14.25268,-8.53479c1.34539,0 2.01808,0.42043 2.01808,1.2613c0,1.79385 -2.8169,5.25541 -8.4507,10.3847c-5.6338,5.12928 -11.95431,10.27258 -18.96153,15.42989c-7.00722,5.15731 -13.03342,9.24953 -18.07862,12.27664c-1.96202,2.24231 -3.08318,3.67178 -3.36346,4.28842c0.22423,0 0.3924,-0.02803 0.50452,-0.08409c3.5877,-2.5226 7.31554,-4.76491 11.18352,-6.72693c3.86798,-1.96202 6.3065,-2.94303 7.31554,-2.94303c1.00904,0 1.69575,0.1962 2.06012,0.58861c0.36438,0.3924 0.54656,0.81284 0.54656,1.2613c0,1.34539 -0.88291,2.85894 -2.64873,4.54068c-1.76582,1.68173 -3.54565,3.19529 -5.3395,4.54068c-1.79385,1.34539 -2.69077,2.27034 -2.69077,2.77486zM183.86588,228.22157c0,-0.3924 -0.28029,-0.58861 -0.84087,-0.58861c-2.24231,0 -7.77801,4.00813 -16.60711,12.02439c-8.82909,8.01626 -16.74725,15.78025 -23.75447,23.29199c8.07231,-5.21337 16.95747,-11.85621 26.65546,-19.92853c9.69799,-8.07231 14.54698,-13.0054 14.54698,-14.79924" data-paper-data="{&quot;elementType&quot;:&quot;letter&quot;,&quot;baseline&quot;:57.2,&quot;baselineProportion&quot;:0.9581239530988275,&quot;fontSize&quot;:100}"></path><path d="M163.85327,272.11478c0,1.62567 1.12115,2.43851 3.36346,2.43851c4.26039,0 9.55784,-2.29837 15.89237,-6.8951l0.16817,1.2613c-6.61481,4.65279 -12.27664,6.97919 -16.9855,6.97919c-3.36346,0 -5.0452,-1.40144 -5.0452,-4.20433c0,-2.80289 2.08815,-5.71789 6.26445,-8.74501c4.1763,-3.02712 8.47873,-4.54068 12.90729,-4.54068c1.40144,0 2.10217,0.42043 2.10217,1.2613c0,1.34539 -1.5556,2.95705 -4.66681,4.83498c-3.1112,1.87793 -7.18941,3.26536 -12.2346,4.16229c-1.17721,1.34539 -1.76582,2.49457 -1.76582,3.44755zM180.33424,260.25857c0,-0.44846 -0.44846,-0.67269 -1.34539,-0.67269c-0.89692,0 -2.7188,0.85488 -5.46563,2.56464c-2.74683,1.70976 -5.07323,3.54565 -6.97919,5.50767c3.75587,-0.61664 6.9932,-1.7518 9.712,-3.40551c2.7188,-1.6537 4.0782,-2.98507 4.0782,-3.99411" data-paper-data="{&quot;elementType&quot;:&quot;letter&quot;,&quot;baseline&quot;:19,&quot;baselineProportion&quot;:0.9134615384615385,&quot;fontSize&quot;:100}"></path><path d="M197.572,259.24953c0,0 0.2943,0 0.88291,0c0.58861,0 0.88291,0.63065 0.88291,1.89195c0,1.2613 -0.89692,3.09719 -2.69077,5.50767c6.39058,-4.42856 11.51987,-6.64284 15.38785,-6.64284c1.51356,0 2.27034,0.64466 2.27034,1.93399c0,1.28933 -0.56058,2.6207 -1.68173,3.99411c-1.12115,1.37341 -2.35443,2.56464 -3.69981,3.57368c-3.5877,2.57866 -5.38154,4.20433 -5.38154,4.87702c0,0.3924 0.32233,0.58861 0.967,0.58861c0.64466,0 1.72378,-0.33635 3.23733,-1.00904c1.51356,-0.67269 2.85894,-1.3594 4.03616,-2.06012c1.17721,-0.70072 2.59267,-1.56962 4.24637,-2.60668c1.6537,-1.03707 2.53661,-1.58363 2.64873,-1.63969l0.16817,1.2613c-7.56779,5.0452 -12.86525,7.56779 -15.89237,7.56779c-1.4575,0 -2.18625,-0.70072 -2.18625,-2.10217c0,-0.95298 0.60262,-2.08815 1.80786,-3.40551c1.20524,-1.31736 2.50858,-2.53661 3.91003,-3.65777c3.86798,-2.915 5.80198,-4.84899 5.80198,-5.80198c0,-0.28029 -0.30832,-0.42043 -0.92495,-0.42043c-2.07414,0 -5.15731,1.12115 -9.24953,3.36346c-4.09221,2.24231 -8.63289,5.88606 -13.62203,10.93126c-0.33635,0.33635 -0.967,0.50452 -1.89195,0.50452c-0.92495,0 -1.38743,-0.25226 -1.38743,-0.75678c0,-0.16817 1.93399,-2.24231 5.80198,-6.22241c3.86798,-3.9801 5.80198,-6.55876 5.80198,-7.73597c0,-0.28029 -0.18219,-0.42043 -0.54656,-0.42043c-0.36438,0 -1.12115,0.36438 -2.27034,1.09313c-1.14918,0.72875 -2.915,1.89195 -5.29746,3.48959c-2.38245,1.59765 -4.41455,2.92902 -6.09628,3.99411l-0.25226,-1.17721c0.84087,-0.56058 1.99005,-1.34539 3.44755,-2.35443c1.4575,-1.00904 2.66274,-1.83589 3.61572,-2.48055c0.95298,-0.64466 1.99005,-1.33137 3.1112,-2.06012c2.18625,-1.34539 3.86798,-2.01808 5.0452,-2.01808z" data-paper-data="{&quot;elementType&quot;:&quot;letter&quot;,&quot;baseline&quot;:18,&quot;baselineProportion&quot;:0.8780487804878049,&quot;fontSize&quot;:100}"></path><path d="M241.04478,260.42674c0.89692,-0.89692 1.49954,-1.34539 1.80786,-1.34539c0.30832,0 0.78481,0.08409 1.42947,0.25226c0.64466,0.16817 0.967,0.35036 0.967,0.54656c0,0.1962 -0.22423,0.49051 -0.67269,0.88291c-0.44846,0.3924 -6.3065,6.22241 -17.5741,17.49001c7.39962,-3.69981 13.62203,-7.23145 18.66723,-10.59491l0.16817,1.2613c-2.5226,1.4575 -4.31645,2.55063 -5.38154,3.27938c-3.02712,1.84991 -8.29655,4.65279 -15.80828,8.40866c-8.12837,8.18443 -15.12158,14.72917 -20.97961,19.63422c-5.85803,4.90505 -10.21652,7.35758 -13.07547,7.35758c-1.62567,0 -2.43851,-0.92495 -2.43851,-2.77486c0,-1.84991 0.84087,-3.74185 2.5226,-5.67585c1.68173,-1.93399 4.1763,-3.91003 7.48371,-5.92811c5.21337,-3.13923 12.19256,-6.83904 20.93757,-11.09943c0.3924,-0.16817 0.70072,-0.30832 0.92495,-0.42043c0.95298,-0.95298 2.48055,-2.55063 4.58272,-4.79294c2.10217,-2.24231 3.48959,-3.69981 4.16229,-4.3725c0.67269,-0.67269 1.17721,-1.17721 1.51356,-1.51356c0.72875,-0.78481 1.37341,-1.42947 1.93399,-1.93399c-6.22241,4.26039 -10.98732,6.41861 -14.29472,6.47467c-1.28933,0 -1.93399,-0.75678 -1.93399,-2.27034c0,-2.85894 1.83589,-5.92811 5.50767,-9.20748c3.67178,-3.27938 8.42268,-4.91907 14.25268,-4.91907c1.96202,0 3.72784,0.42043 5.29746,1.2613zM193.57789,297.67711c0,0 -0.37138,0.2943 -1.11415,0.88291c-0.74277,0.58861 -1.45049,1.42947 -2.12319,2.5226c-0.67269,1.09313 -1.00904,2.25632 -1.00904,3.48959c0,1.23327 0.61664,1.84991 1.84991,1.84991c3.02712,0 11.91227,-7.51174 26.65546,-22.53521c-9.92222,4.76491 -16.07456,7.9602 -18.45701,9.58587c-2.38245,1.62567 -4.31645,3.02712 -5.80198,4.20433M218.93,274.21694c1.96202,0 4.63878,-0.99502 8.03027,-2.98507c3.39149,-1.99005 6.32051,-4.00813 8.78705,-6.05424c2.46654,-2.04611 3.69981,-3.25135 3.69981,-3.61572c0,-0.36438 -0.40642,-0.65868 -1.21926,-0.88291c-0.81284,-0.22423 -1.61166,-0.33635 -2.39647,-0.33635c-2.29837,0 -4.89104,0.89692 -7.77801,2.69077c-2.88697,1.79385 -5.26943,3.72784 -7.14736,5.80198c-1.87793,2.07414 -2.8169,3.61572 -2.8169,4.62476c0,0.50452 0.28029,0.75678 0.84087,0.75678" data-paper-data="{&quot;elementType&quot;:&quot;letter&quot;,&quot;baseline&quot;:18.200000000000003,&quot;baselineProportion&quot;:0.3154246100519931,&quot;fontSize&quot;:100}"></path></g><g data-paper-data="{&quot;baselineProportion&quot;:0.8059701492537313,&quot;fontSize&quot;:100,&quot;baseline&quot;:97.2,&quot;elementType&quot;:&quot;word&quot;}"><path d="M390.55077,210.89973l-0.25226,0.84087c-7.11933,2.57866 -15.38785,8.57683 -24.80555,17.99453c-0.84087,0.84087 -10.23054,10.79111 -28.16901,29.85075c-1.73779,1.68173 -4.23236,3.81193 -7.48371,6.39058c2.41048,2.74683 3.61572,5.71789 3.61572,8.91318c0,4.31645 -2.28435,8.2545 -6.85306,11.81417c-4.56871,3.55967 -11.30965,6.01219 -20.22283,7.35758v-0.92495c7.79203,-1.23327 13.76218,-3.57368 17.91045,-7.02123c4.14827,-3.44755 6.22241,-7.27349 6.22241,-11.47782c0,-2.57866 -0.81284,-5.01717 -2.43851,-7.31554c-10.70703,7.67991 -19.98458,11.51987 -27.83267,11.51987c-3.5877,0 -6.55876,-0.56058 -8.91318,-1.68173c-4.09221,1.17721 -8.12837,1.76582 -12.10847,1.76582c-3.9801,0 -7.03525,-0.63065 -9.16544,-1.89195c-2.13019,-1.2613 -3.19529,-2.87296 -3.19529,-4.83498c0,-2.69077 1.84991,-5.42359 5.54972,-8.19844c3.69981,-2.77486 8.82909,-4.86301 15.38785,-6.26445c2.18625,-3.64375 5.22738,-6.68489 9.1234,-9.1234c3.89601,-2.43851 8.17042,-3.65777 12.82321,-3.65777c2.85894,0 4.98914,0.60262 6.39058,1.80786c1.40144,1.20524 2.10217,2.80289 2.10217,4.79294c0,1.99005 -0.58861,4.13426 -1.76582,6.43263c4.54068,1.28933 8.29655,3.22332 11.26761,5.80198l28.16901,-28.08493c4.87702,-5.38154 10.37068,-10.41273 16.48098,-15.09355c6.11029,-4.68082 12.16453,-7.91816 18.16271,-9.712zM401.31385,197.69813c6.72693,-3.36346 13.08948,-5.0452 19.08766,-5.0452c3.9801,0 7.03525,0.65868 9.16544,1.97604c2.13019,1.31736 3.19529,2.95705 3.19529,4.91907c0,3.02712 -2.21428,5.80198 -6.64284,8.32457c-4.42856,2.5226 -10.39871,3.7839 -17.91045,3.7839c-4.26039,0 -11.73008,-1.09313 -22.40908,-3.27938c-10.679,-2.18625 -17.89643,-3.30741 -21.6523,-3.36346c0.16817,0.84087 0.25226,1.68173 0.25226,2.5226c0,3.9801 -1.52757,8.26852 -4.58272,12.86525c-3.05515,4.59673 -6.90912,8.47873 -11.56191,11.646c-4.65279,3.16726 -9.08135,4.75089 -13.28568,4.75089c-2.85894,0 -5.01717,-0.63065 -6.47467,-1.89195c-1.4575,-1.2613 -2.18625,-3.0131 -2.18625,-5.25541c0,-2.24231 0.85488,-4.75089 2.56464,-7.52575c1.70976,-2.77486 4.06419,-5.4376 7.06328,-7.98823c2.99909,-2.55063 6.85306,-4.76491 11.56191,-6.64284c4.70885,-1.87793 9.72602,-2.98507 15.0515,-3.32142c-1.90596,-5.10125 -7.84808,-7.65188 -17.82636,-7.65188c-2.80289,0 -5.75993,0.47649 -8.87114,1.42947c-3.1112,0.95298 -5.90008,2.10217 -8.36662,3.44755c-4.98914,2.80289 -8.88515,5.35351 -11.68804,7.65188l-1.68173,1.42947l-0.50452,-1.00904c0.95298,-0.95298 2.83092,-2.41048 5.6338,-4.3725c2.80289,-1.96202 5.39556,-3.55967 7.77801,-4.79294c2.38245,-1.23327 5.28344,-2.35443 8.70296,-3.36346c3.41952,-1.00904 6.72693,-1.51356 9.92222,-1.51356c10.31462,0 16.39689,2.88697 18.24679,8.66092c0.50452,-0.05606 1.28933,-0.08409 2.35443,-0.08409c5.0452,0 12.66905,0.93897 22.87156,2.8169c10.20251,1.87793 17.04155,2.8169 20.51713,2.8169c6.55876,0 11.8422,-1.00904 15.85033,-3.02712c4.00813,-2.01808 6.01219,-4.23236 6.01219,-6.64284c0,-1.62567 -1.02305,-2.95705 -3.06916,-3.99411c-2.04611,-1.03707 -5.32549,-1.5556 -9.83813,-1.5556c-4.51265,0 -10.07638,1.37341 -16.69119,4.12024l-0.58861,-0.84087M327.65398,230.57599c0,3.47558 2.69077,5.21337 8.07231,5.21337c3.5877,0 7.55378,-1.51356 11.89826,-4.54068c4.34447,-3.02712 8.03027,-6.75496 11.05739,-11.18352c3.02712,-4.42856 4.54068,-8.52078 4.54068,-12.27664c0,-0.67269 -0.11212,-1.56962 -0.33635,-2.69077c-5.26943,0.16817 -10.72104,1.77983 -16.35485,4.83498c-5.6338,3.05515 -10.18849,6.54474 -13.66407,10.46878c-3.47558,3.92404 -5.21337,7.31554 -5.21337,10.17448M313.35926,258.32457c-3.64375,-0.84087 -7.55378,-1.2613 -11.73008,-1.2613c-4.1763,0 -8.50676,0.47649 -12.99138,1.42947c-1.62567,2.80289 -2.43851,5.60577 -2.43851,8.40866c0,4.03616 1.76582,6.97919 5.29746,8.82909c4.70885,-1.68173 9.0253,-4.14827 12.94934,-7.39962c3.92404,-3.25135 6.8951,-6.58678 8.91318,-10.00631M284.93799,267.15367c0,-2.80289 0.75678,-5.57775 2.27034,-8.32457c-5.60577,1.40144 -10.09039,3.40551 -13.45386,6.01219c-3.36346,2.60668 -5.0452,5.11527 -5.0452,7.52575c0,1.68173 0.91094,3.04113 2.73281,4.0782c1.82188,1.03707 4.4706,1.5556 7.94618,1.5556c3.47558,0 6.95116,-0.56058 10.42674,-1.68173c-3.25135,-2.01808 -4.87702,-5.07323 -4.87702,-9.16544M293.34665,276.57137c2.07414,0.78481 4.69484,1.17721 7.8621,1.17721c3.16726,0 7.32955,-1.31736 12.48686,-3.95207c5.38154,-2.74683 9.58587,-5.6338 12.61299,-8.66092c-2.5226,-2.63471 -5.99818,-4.65279 -10.42674,-6.05424c-1.96202,3.53164 -4.93308,6.8951 -8.91318,10.09039c-3.9801,3.19529 -8.52078,5.66183 -13.62203,7.39962M289.31049,257.48371c4.59673,-0.84087 8.98325,-1.2613 13.15955,-1.2613c4.1763,0 8.00224,0.36438 11.47782,1.09313c1.17721,-2.24231 1.76582,-4.20433 1.76582,-5.88606c0,-3.53164 -2.3264,-5.29746 -6.97919,-5.29746c-3.9801,0 -7.69392,1.07911 -11.14148,3.23733c-3.44755,2.15822 -6.20839,4.86301 -8.28253,8.11436" data-paper-data="{&quot;elementType&quot;:&quot;letter&quot;,&quot;baseline&quot;:97.2,&quot;baselineProportion&quot;:0.8059701492537313,&quot;fontSize&quot;:100}"></path><path d="M361.28863,259.16544c2.97106,0 4.45659,0.98101 4.45659,2.94303c0,1.68173 -1.03707,3.69981 -3.1112,6.05424v0.67269c0,1.84991 0.81284,2.77486 2.43851,2.77486c1.00904,0 2.13019,-0.42043 3.36346,-1.2613l4.12024,-2.69077l0.16817,1.2613l-3.86798,2.43851c-1.79385,1.17721 -3.54565,1.76582 -5.25541,1.76582c-1.70976,0 -2.84493,-0.86889 -3.40551,-2.60668c-4.48462,3.9801 -8.74501,5.97015 -12.78116,5.97015c-2.41048,0 -3.61572,-1.14918 -3.61572,-3.44755c0,-2.915 1.70976,-5.95613 5.12928,-9.1234c3.41952,-3.16726 7.53977,-4.75089 12.36073,-4.75089zM348.2552,275.05781c4.03616,0 7.9602,-2.01808 11.77213,-6.05424v-0.08409c0,-2.69077 1.28933,-5.21337 3.86798,-7.56779c-0.16817,-0.61664 -0.64466,-0.92495 -1.42947,-0.92495c-4.14827,0 -7.82005,1.5556 -11.01535,4.66681c-3.19529,3.1112 -4.79294,5.84402 -4.79294,8.19844c0,1.17721 0.53255,1.76582 1.59765,1.76582" data-paper-data="{&quot;elementType&quot;:&quot;letter&quot;,&quot;baseline&quot;:18.099999999999994,&quot;baselineProportion&quot;:0.8786407766990291,&quot;fontSize&quot;:100}"></path><path d="M387.60774,259.16544c2.97106,0 4.45659,0.98101 4.45659,2.94303c0,1.68173 -1.03707,3.69981 -3.1112,6.05424v0.67269c0,1.84991 0.81284,2.77486 2.43851,2.77486c1.00904,0 2.13019,-0.42043 3.36346,-1.2613l4.12024,-2.69077l0.16817,1.2613l-3.86798,2.43851c-1.79385,1.17721 -3.54565,1.76582 -5.25541,1.76582c-1.70976,0 -2.84493,-0.86889 -3.40551,-2.60668c-4.48462,3.9801 -8.74501,5.97015 -12.78116,5.97015c-2.41048,0 -3.61572,-1.14918 -3.61572,-3.44755c0,-2.915 1.70976,-5.95613 5.12928,-9.1234c3.41952,-3.16726 7.53977,-4.75089 12.36073,-4.75089zM374.57431,275.05781c4.03616,0 7.9602,-2.01808 11.77213,-6.05424v-0.08409c0,-2.69077 1.28933,-5.21337 3.86798,-7.56779c-0.16817,-0.61664 -0.64466,-0.92495 -1.42947,-0.92495c-4.14827,0 -7.82005,1.5556 -11.01535,4.66681c-3.19529,3.1112 -4.79294,5.84402 -4.79294,8.19844c0,1.17721 0.53255,1.76582 1.59765,1.76582" data-paper-data="{&quot;elementType&quot;:&quot;letter&quot;,&quot;baseline&quot;:18.099999999999994,&quot;baselineProportion&quot;:0.8786407766990291,&quot;fontSize&quot;:100}"></path><path d="M401.14568,267.40593c-2.24231,2.97106 -3.36346,4.97512 -3.36346,6.01219c0,1.03707 0.47649,1.5556 1.42947,1.5556c2.63471,0 7.45568,-2.43851 14.4629,-7.31554l0.16817,1.2613c-7.45568,4.87702 -12.72511,7.31554 -15.80828,7.31554c-1.51356,0 -2.27034,-0.70072 -2.27034,-2.10217c0,-3.08318 3.60171,-8.64691 10.80513,-16.69119c7.20342,-8.04429 15.16362,-15.49996 23.8806,-22.36704c8.71698,-6.86707 14.89734,-10.30061 18.5411,-10.30061c0.67269,0 1.00904,0.25226 1.00904,0.75678c0,1.34539 -1.3594,3.46157 -4.0782,6.34854c-2.7188,2.88697 -6.37657,6.18037 -10.9733,9.88018c-4.59673,3.69981 -8.88515,7.06328 -12.86525,10.09039c-3.9801,3.02712 -8.29655,6.23642 -12.94934,9.62792c-4.65279,3.39149 -7.31554,5.36753 -7.98823,5.92811zM448.40235,225.86714c-2.80289,0 -9.36164,4.51265 -19.67627,13.53794c-10.31462,9.0253 -18.66723,17.32184 -25.05781,24.88964c7.45568,-5.10125 16.84535,-12.29066 28.16901,-21.56822c11.32366,-9.27756 16.9855,-14.81326 16.9855,-16.60711c0,-0.16817 -0.14014,-0.25226 -0.42043,-0.25226" data-paper-data="{&quot;elementType&quot;:&quot;letter&quot;,&quot;baseline&quot;:59,&quot;baselineProportion&quot;:0.9640522875816993,&quot;fontSize&quot;:100}"></path><path d="M427.29662,257.48371c0.22423,-0.33635 0.49051,-0.50452 0.79882,-0.50452c0.30832,0 0.46248,0.16817 0.46248,0.50452c0,0.33635 -0.16817,0.67269 -0.50452,1.00904c-0.33635,0.33635 -0.57459,1.3594 -0.71474,3.06916c-0.14014,1.70976 -0.57459,3.7839 -1.30334,6.22241c-0.72875,2.43851 -1.99005,4.63878 -3.7839,6.6008c0,0.11212 0.11212,0.16817 0.33635,0.16817c0.3924,0 1.82188,-0.67269 4.28842,-2.01808l1.17721,-0.58861c2.13019,-1.17721 4.40053,-2.60668 6.81102,-4.28842l0.16817,1.2613c-8.74501,5.66183 -15.44391,8.49275 -20.0967,8.49275c-1.84991,0 -3.20931,-0.3924 -4.0782,-1.17721c-0.86889,-0.78481 -1.30334,-1.6537 -1.30334,-2.60668c0,-0.95298 0.22423,-1.72378 0.67269,-2.31238c0.44846,-0.58861 1.00904,-0.88291 1.68173,-0.88291c0.84087,0 1.2613,0.44846 1.2613,1.34539c0,0.56058 -0.44846,1.0651 -1.34539,1.51356c-0.28029,0.16817 -0.42043,0.44846 -0.42043,0.84087c0,0.3924 0.32233,0.85488 0.967,1.38743c0.64466,0.53255 1.33137,0.79882 2.06012,0.79882c2.46654,0 4.58272,-1.5556 6.34854,-4.66681c1.76582,-3.1112 2.90099,-6.20839 3.40551,-9.29157v-0.25226c-5.4376,3.69981 -9.10938,6.11029 -11.01535,7.23145l-0.25226,-1.17721c9.13741,-5.88606 13.93035,-9.44573 14.37881,-10.679z" data-paper-data="{&quot;elementType&quot;:&quot;letter&quot;,&quot;baseline&quot;:20.700000000000003,&quot;baselineProportion&quot;:0.8518518518518521,&quot;fontSize&quot;:100}"></path></g></g></g></g></g></svg>